<svg width="680" height="1090" viewBox="-34 -54.5 68 109" xmlns="http://www.w3.org/2000/svg">
    <defs>
        <g id="f0">
            <line x1="0" y1="-50" x2="0" y2="50" stroke="black" vector-effect="non-scaling-stroke" />
        </g>
        <g id="f1">
            <use href="#f0" transform="matrix(0.25, 0.25, -0.25, 0.25, -12.5, -37.5)"/>
            <use href="#f0" transform="matrix(0.25, 0, 0, 0.25, -25, -12.5)"/>
            <use href="#f0" transform="matrix(0.125, -0.125, 0.125, 0.125, -18.75, 6.25)"/>
            <use href="#f0" transform="matrix(-0.25, -0.25, 0.25, -0.25, 0, 0)"/>
            <use href="#f0" transform="matrix(0.125, -0.125, 0.125, 0.125, 18.75, -6.25)"/>
            <use href="#f0" transform="matrix(0.25, 0, 0, 0.25, 25, 12.5)"/>
            <use href="#f0" transform="matrix(0.25, 0.25, -0.25, 0.25, 12.5, 37.5)"/>
        </g>
        <g id="f2">
            <use href="#f1" transform="matrix(0.25, 0.25, -0.25, 0.25, -12.5, -37.5)"/>
            <use href="#f1" transform="matrix(0.25, 0, 0, 0.25, -25, -12.5)"/>
            <use href="#f1" transform="matrix(0.125, -0.125, 0.125, 0.125, -18.75, 6.25)"/>
            <use href="#f1" transform="matrix(-0.25, -0.25, 0.25, -0.25, 0, 0)"/>
            <use href="#f1" transform="matrix(0.125, -0.125, 0.125, 0.125, 18.75, -6.25)"/>
            <use href="#f1" transform="matrix(0.25, 0, 0, 0.25, 25, 12.5)"/>
            <use href="#f1" transform="matrix(0.25, 0.25, -0.25, 0.25, 12.5, 37.5)"/>
        </g>
        <g id="f3">
            <use href="#f2" transform="matrix(0.25, 0.25, -0.25, 0.25, -12.5, -37.5)"/>
            <use href="#f2" transform="matrix(0.25, 0, 0, 0.25, -25, -12.5)"/>
            <use href="#f2" transform="matrix(0.125, -0.125, 0.125, 0.125, -18.75, 6.25)"/>
            <use href="#f2" transform="matrix(-0.25, -0.25, 0.25, -0.25, 0, 0)"/>
            <use href="#f2" transform="matrix(0.125, -0.125, 0.125, 0.125, 18.75, -6.25)"/>
            <use href="#f2" transform="matrix(0.25, 0, 0, 0.25, 25, 12.5)"/>
            <use href="#f2" transform="matrix(0.25, 0.25, -0.25, 0.25, 12.5, 37.5)"/>
        </g>
        <g id="f4">
            <use href="#f3" transform="matrix(0.25, 0.25, -0.25, 0.25, -12.5, -37.5)"/>
            <use href="#f3" transform="matrix(0.25, 0, 0, 0.25, -25, -12.5)"/>
            <use href="#f3" transform="matrix(0.125, -0.125, 0.125, 0.125, -18.75, 6.25)"/>
            <use href="#f3" transform="matrix(-0.25, -0.25, 0.25, -0.25, 0, 0)"/>
            <use href="#f3" transform="matrix(0.125, -0.125, 0.125, 0.125, 18.75, -6.25)"/>
            <use href="#f3" transform="matrix(0.25, 0, 0, 0.25, 25, 12.5)"/>
            <use href="#f3" transform="matrix(0.25, 0.25, -0.25, 0.25, 12.5, 37.5)"/>
        </g>
        <g id="f5">
            <use href="#f4" transform="matrix(0.25, 0.25, -0.25, 0.25, -12.5, -37.5)"/>
            <use href="#f4" transform="matrix(0.25, 0, 0, 0.25, -25, -12.5)"/>
            <use href="#f4" transform="matrix(0.125, -0.125, 0.125, 0.125, -18.75, 6.25)"/>
            <use href="#f4" transform="matrix(-0.25, -0.25, 0.25, -0.25, 0, 0)"/>
            <use href="#f4" transform="matrix(0.125, -0.125, 0.125, 0.125, 18.75, -6.25)"/>
            <use href="#f4" transform="matrix(0.25, 0, 0, 0.25, 25, 12.5)"/>
            <use href="#f4" transform="matrix(0.25, 0.25, -0.25, 0.25, 12.5, 37.5)"/>
        </g>
    </defs>
    <use href="#f5"/>
</svg>